<svg version="1.0" xmlns="http://www.w3.org/2000/svg" width="292" height="306.667" viewBox="0 0 219 230"><path d="M91.7 46.4c-10.4 3.7-15.8 12.2-16.5 25.7-.3 5.4 0 9.4.7 10.7 1 1.8.8 2.7-.9 5-1.9 2.6-2 3.4-1 7 .7 2.7 2.2 5 4 6.4 1.9 1.3 3 3.1 3 4.5 0 1.3.6 3.8 1.4 5.7l1.4 3.2-11 5.9c-10.9 5.9-14.8 9.3-16.3 14.5-.4 1.4-3.2 8.7-6.1 16.3-3 7.7-5.4 15.4-5.4 17.3 0 5.1 2.2 9.6 6.3 12.7l3.6 2.7H103c46.7 0 48.3-.1 51-2 4.1-2.9 7-8.1 7-12.5 0-2.1-2.3-9.9-5-17.4-9.3-25.1-8.6-24.1-24.5-32.6-4.9-2.6-9.1-4.9-9.3-5-.2-.2.4-1.7 1.2-3.4.9-1.6 1.6-4.3 1.6-6 0-2.1.6-3.2 2-3.6 3.6-1.1 5.3-5 4.8-10.5-.4-3.8-.2-5 .8-5 2 0 1.7-1.9-1.1-6.9-1.4-2.3-2.5-4.5-2.5-4.7 0-.2 1.2-.4 2.6-.4 2.4 0 2.6-.3 2-3.2-1.2-5.9-5.3-11.5-10.2-13.9l-4.7-2.2 2.7-1.4c3.7-1.9 3.3-2.9-1.8-4.2-5.5-1.3-11-1.4-15.4-.2-3.1.9-3.2.9-2.6-1.5.6-2.2.3-2.4-2.7-2.4-1.9.1-5.1.7-7.2 1.4zM99 50v2.9l4.1-1.4c4.4-1.6 12.1-1.9 15.4-.6 1.8.7 1.7.9-1.3 2.5-4.3 2.2-4 3.2 1 4 4.7.8 11.2 6.5 12.4 11 .8 3.5.5 3.8-3.4 2.7-1.8-.5-3.2-.6-3.2-.1 0 .4 1.6 3.1 3.5 6s3.5 5.6 3.5 6.1c0 1.5-9.2 1-15.1-.7-6.8-2-17.6-7.5-21.6-10.8-3.8-3.2-4.4-3.2-6.2-.4-.8 1.3-3.2 4.7-5.4 7.7-3.9 5.3-4 5.4-5 3-1.9-5.1-1.2-14.1 1.7-20.4 3.4-7.6 5-9.3 11.1-12.1 6.8-3.2 8.5-3.1 8.5.6zm-1.3 26.4c8.2 5.2 16.4 8.4 24.1 9.2 7 .8 8.2 1.7 8.2 6.1 0 4.4-1.5 7.2-4.6 8.3-2 .8-2.4 1.6-2.4 4.8 0 6-4.8 12.7-11.3 15.7-5.7 2.7-9.7 3.1-14.8 1.4-7.9-2.7-13.8-10.2-13.9-17.6 0-2.5-.6-3.5-2.7-4.5-1.5-.7-3.4-2.6-4.1-4.1-1.6-3.2-.8-7.7 1.2-7.7.8 0 4-3.6 7.2-8 3.1-4.4 5.9-8 6-8 .2 0 3.4 2 7.1 4.4zm-9.1 43.5c7.7 6.9 19.9 6.8 28.7-.1l3.8-3 7.2 3.8c10.7 5.6 14.3 8 16.4 11.1 2.4 3.3 5.8 11.7 10.9 27 3.7 11.1 3.7 11.2 2 15-2.2 5-7.4 8.5-11.8 8.1l-3.3-.3v-8c0-7.9 0-8 3.2-10 3.4-2.1 4.6-5.3 1.6-4-5.5 2.3-5.3 2.7-5.3-10.1 0-9.5-.3-12.1-1.7-13.6-1.5-1.7-4-1.8-37.1-1.8-31.7 0-35.7.2-37.4 1.7-1.6 1.4-1.8 3.3-1.8 14v12.4l-3-1.6c-3.4-1.8-4-1.8-4-.5 0 .6 1.6 2 3.5 3.1l3.5 2.1V182h-3.8c-6.7 0-13.1-6.2-13.2-12.7 0-3.6 11.3-34.4 14.2-38.5 1.6-2.4 20.8-13.7 23.2-13.8.4 0 2.3 1.3 4.2 2.9zm50.1 17.7c.3.9.2 1.9-.3 2.3-2.5 1.8-3.2 6.3-3.1 19.9.1 7.8-.1 14.2-.5 14.2-.5 0-.8.7-.8 1.5 0 1.3-3.8 1.5-28 1.5-15.4 0-28.8.4-29.8.9-.9.4-3.1 1.6-4.9 2.5-1.7.9-3.6 1.6-4.2 1.6-1.5 0-1.5-41.3-.1-44.1 1-1.8 2.5-1.9 36.1-1.9 31.1 0 35 .2 35.6 1.6z"/><path d="m83.8 92.7 1.8 4.8 5.8.3c6.5.3 8.2-.6 9.1-4.9.9-3.8 4-4 5-.2 1.1 4.5 2.3 5.3 8.5 5.3 6.5 0 7.5-.8 8.5-6.3l.7-3.7H82l1.8 4.7z"/></svg>