<svg xmlns="http://www.w3.org/2000/svg" height="1200" width="1200" xml:space="preserve"><defs><clipPath id="a" clipPathUnits="userSpaceOnUse"><path d="M4997.82 4844.7h-14.52c4.58 4.73 9.42 9.75 14.52 15.03v-15.03"/></clipPath></defs><path style="fill:none;stroke:#6b6881;stroke-width:70;stroke-linecap:butt;stroke-linejoin:miter;stroke-miterlimit:10;stroke-dasharray:none;stroke-opacity:1" d="M636.734 1946.61H8436.01" transform="matrix(.13333 0 0 -.13333 0 1200)"/><path style="fill:#1c254a;fill-opacity:1;fill-rule:nonzero;stroke:none" d="M1765.58 4555.35h661.184v1422.17H1765.58z" transform="matrix(.13333 0 0 -.13333 0 1200)"/><path style="fill:#6d6b81;fill-opacity:1;fill-rule:nonzero;stroke:none" d="M1031.18 5054.41H3151.4v1369.01c0 47.9-38.83 86.72-86.72 86.72H1117.9c-47.9 0-86.72-38.82-86.72-86.72V5054.41" transform="matrix(.13333 0 0 -.13333 0 1200)"/><path style="fill:#6d6b81;fill-opacity:1;fill-rule:nonzero;stroke:none" d="M1234.53 4841.75h1753.52c101.11 0 183.08 81.97 183.08 183.08v70.14H1051.44v-70.14c0-101.11 81.97-183.08 183.09-183.08" transform="matrix(.13333 0 0 -.13333 0 1200)"/><path style="fill:#292935;fill-opacity:1;fill-rule:nonzero;stroke:none" d="M3225.6 6423.5V5054.4l-520.3 8.3-544.6 8.7-172 2.8-550.4 8.8-333 5.3v1335.2c0 47.8 38.8 86.6 86.7 86.6h1946.8c48 0 86.8-38.8 86.8-86.6" transform="matrix(.13333 0 0 -.13333 0 1200)"/><path style="fill:#fff;fill-opacity:1;fill-rule:nonzero;stroke:none" d="M1184.49 6384.7V5176.84c0-4.43 3.59-8.02 8.01-8.02h1945.92c4.43 0 8.01 3.59 8.01 8.02V6384.7c0 4.43-3.58 8.02-8.01 8.02H1192.5c-4.42 0-8.01-3.59-8.01-8.02" transform="matrix(.13333 0 0 -.13333 0 1200)"/><path style="fill:#9f9aaf;fill-opacity:1;fill-rule:nonzero;stroke:none" d="M1288.65 4841.75h1753.52c101.11 0 183.08 81.97 183.08 183.08v70.14H1105.57v-70.14c0-101.11 81.96-183.08 183.08-183.08m460.25-291.91h886.27c27.2 0 49.24 22.04 49.24 49.24 0 27.19-22.04 49.24-49.24 49.24H1748.9c-27.19 0-49.24-22.05-49.24-49.24 0-27.2 22.05-49.24 49.24-49.24" transform="matrix(.13333 0 0 -.13333 0 1200)"/><path style="fill:#6f84ca;fill-opacity:1;fill-rule:nonzero;stroke:none" d="M3053.36 6180.27H1310.39c-14.51 0-26.27 11.76-26.27 26.28v101.67c0 14.52 11.76 26.29 26.27 26.29h1742.97c14.51 0 26.28-11.77 26.28-26.29v-101.67c0-14.52-11.77-26.28-26.28-26.28" transform="matrix(.13333 0 0 -.13333 0 1200)"/><path style="fill:#eb3d3c;fill-opacity:1;fill-rule:nonzero;stroke:none" d="M1420.11 6259.8c0-18.61-14.72-33.7-32.89-33.7-18.16 0-32.89 15.09-32.89 33.7 0 18.61 14.73 33.7 32.89 33.7 18.17 0 32.89-15.09 32.89-33.7" transform="matrix(.13333 0 0 -.13333 0 1200)"/><path style="fill:#fbc02c;fill-opacity:1;fill-rule:nonzero;stroke:none" d="M1540.04 6259.8c0-18.61-14.72-33.7-32.89-33.7-18.16 0-32.88 15.09-32.88 33.7 0 18.61 14.72 33.7 32.88 33.7 18.17 0 32.89-15.09 32.89-33.7" transform="matrix(.13333 0 0 -.13333 0 1200)"/><path style="fill:#94d122;fill-opacity:1;fill-rule:nonzero;stroke:none" d="M1659.98 6259.8c0-18.61-14.73-33.7-32.89-33.7s-32.89 15.09-32.89 33.7c0 18.61 14.73 33.7 32.89 33.7s32.89-15.09 32.89-33.7" transform="matrix(.13333 0 0 -.13333 0 1200)"/><path style="fill:#2f396e;fill-opacity:1;fill-rule:nonzero;stroke:none" d="M1877.84 5909.66h-582.48c-8.74 0-15.83 7.09-15.83 15.83v177.68c0 8.74 7.09 15.82 15.83 15.82h582.48c8.74 0 15.82-7.08 15.82-15.82v-177.68c0-8.74-7.08-15.83-15.82-15.83" transform="matrix(.13333 0 0 -.13333 0 1200)"/><path style="fill:#5f8c66;fill-opacity:1;fill-rule:nonzero;stroke:none" d="M2592.8 5645.25h-582.48c-8.74 0-15.83 7.09-15.83 15.83v177.67c0 8.74 7.09 15.83 15.83 15.83h582.48c8.74 0 15.82-7.09 15.82-15.83v-177.67c0-8.74-7.08-15.83-15.82-15.83m471.01 264.42h-352.29c-8.74 0-15.82 7.08-15.82 15.82v177.68c0 8.74 7.08 15.82 15.82 15.82h352.29c8.74 0 15.83-7.08 15.83-15.82v-177.68c0-8.74-7.09-15.82-15.83-15.82" transform="matrix(.13333 0 0 -.13333 0 1200)"/><path style="fill:#eb3d3c;fill-opacity:1;fill-rule:nonzero;stroke:none" d="M3063.81 5641.12h-352.29c-8.74 0-15.82 7.09-15.82 15.83v177.67c0 8.74 7.08 15.83 15.82 15.83h352.29c8.74 0 15.83-7.09 15.83-15.83v-177.67c0-8.74-7.09-15.83-15.83-15.83" transform="matrix(.13333 0 0 -.13333 0 1200)"/><path style="fill:#1c254a;fill-opacity:1;fill-rule:nonzero;stroke:none" d="M1999.07 5936.37h614.129v15.008H1999.07zm0 53.42h614.129v15.012H1999.07zm0 53.41h614.129v15.012H1999.07zm0 53.41h614.129v15.012H1999.07z" transform="matrix(.13333 0 0 -.13333 0 1200)"/><path style="fill:#eb3d3c;fill-opacity:1;fill-rule:nonzero;stroke:none" d="M1877.84 5384.97h-582.48c-8.74 0-15.83 7.09-15.83 15.83v177.67c0 8.74 7.09 15.83 15.83 15.83h582.48c8.74 0 15.82-7.09 15.82-15.83V5400.8c0-8.74-7.08-15.83-15.82-15.83" transform="matrix(.13333 0 0 -.13333 0 1200)"/><path style="fill:#1c254a;fill-opacity:1;fill-rule:nonzero;stroke:none" d="M1999.07 5411.68h614.129v15.012H1999.07zm0 53.41h614.129v15.012H1999.07zm0 53.41h614.129v15.02H1999.07zm0 53.42h614.129v15.008H1999.07zm-721.83 108.3h614.133v15.012H1277.24zm0 53.42h614.133v15.008H1277.24zm0 53.41h614.133v15.008H1277.24zm0 53.41h614.133v15.008H1277.24z" transform="matrix(.13333 0 0 -.13333 0 1200)"/><path style="fill:#353551;fill-opacity:1;fill-rule:nonzero;stroke:none" d="M2161.61 5094.97h-722.4l33.96 73.85h722.68l-34.24-73.85m425.92 1297.75h-551.51L2090 6510.1h434.99c17.95-44.84 39.74-83.9 62.54-117.38" transform="matrix(.13333 0 0 -.13333 0 1200)"/><path style="fill:#fff;fill-opacity:1;fill-rule:nonzero;stroke:none" d="M2195.85 5168.82h-722.68l99.4 216.15h305.27c8.74 0 15.82 7.09 15.82 15.83v177.67c0 8.74-7.08 15.83-15.82 15.83h-209l39.51 85.92h183.02v15.01h-176.11l17.66 38.41h158.45v15.01h-151.55l17.66 38.4h133.89v15.01h-126.98l17.66 38.4h109.32v15.01h-102.42l24.92 54.19h63.97c8.74 0 15.82 7.09 15.82 15.83v157.68l44.65 97.1h726.39l-56.58-122.06h-609.05v-15.01h602.09l-17.8-38.4h-584.29v-15.01h577.33l-17.8-38.41h-559.53v-15.01h552.57l-37.91-81.79h-503.41c-8.74 0-15.83-7.09-15.83-15.83v-177.67c0-8.74 7.09-15.83 15.83-15.83h406.37l-27.03-58.32h-390.59v-15.01h383.63l-17.8-38.4h-365.83v-15.02h358.87l-17.8-38.4h-341.07v-15.01h334.11l-17.8-38.4h-316.31v-15.01h309.35l-112.57-242.86m-196.78 942.8v-15.01h614.13v15.01h-614.13m633.35 222.89h-623.17l26.77 58.21h551.51a621.073 621.073 0 0 1 44.89-58.21" transform="matrix(.13333 0 0 -.13333 0 1200)"/><path style="fill:#c0bbd8;fill-opacity:1;fill-rule:nonzero;stroke:none" d="M2160.7 5093h-722.4l.91 1.97h722.4l-.91-1.97" transform="matrix(.13333 0 0 -.13333 0 1200)"/><path style="fill:#94aee0;fill-opacity:1;fill-rule:nonzero;stroke:none" d="M2664.7 6180.27h-726.39l70.94 154.24h623.17c26.31-30.24 51.54-53.35 71.47-69.7l-39.19-84.54" transform="matrix(.13333 0 0 -.13333 0 1200)"/><path style="fill:#3f4aa6;fill-opacity:1;fill-rule:nonzero;stroke:none" d="M1877.84 5909.66h-63.97l79.79 173.51v-157.68c0-8.74-7.08-15.83-15.82-15.83" transform="matrix(.13333 0 0 -.13333 0 1200)"/><path style="fill:#82b69b;fill-opacity:1;fill-rule:nonzero;stroke:none" d="M2416.69 5645.25h-406.37c-8.74 0-15.83 7.09-15.83 15.83v177.67c0 8.74 7.09 15.83 15.83 15.83h503.41l-97.04-209.33" transform="matrix(.13333 0 0 -.13333 0 1200)"/><path style="fill:#273370;fill-opacity:1;fill-rule:nonzero;stroke:none" d="M2551.64 5936.37h-552.57v15.01h559.53l-6.96-15.01m24.76 53.42h-577.33v15.01h584.29l-6.96-15.01m24.76 53.41h-602.09v15.01h609.05l-6.96-15.01m-602.09 53.41h614.129v15.012H1999.07z" transform="matrix(.13333 0 0 -.13333 0 1200)"/><path style="fill:#f15359;fill-opacity:1;fill-rule:nonzero;stroke:none" d="M1877.84 5384.97h-305.27l96.27 209.33h209c8.74 0 15.82-7.09 15.82-15.83V5400.8c0-8.74-7.08-15.83-15.82-15.83" transform="matrix(.13333 0 0 -.13333 0 1200)"/><path style="fill:#273370;fill-opacity:1;fill-rule:nonzero;stroke:none" d="M2308.42 5411.68h-309.35v15.01h316.31l-6.96-15.01m24.76 53.41h-334.11v15.01h341.07l-6.96-15.01m24.76 53.41h-358.87v15.02h365.83l-6.96-15.02m24.76 53.42h-383.63v15.01h390.59l-6.96-15.01m-491.33 108.3h-183.02l6.91 15.01h176.11v-15.01m0 53.42h-158.45l6.9 15.01h151.55v-15.01m0 53.41h-133.89l6.91 15.01h126.98v-15.01m0 53.41h-109.32l6.9 15.01h102.42v-15.01" transform="matrix(.13333 0 0 -.13333 0 1200)"/><path style="fill:#774032;fill-opacity:1;fill-rule:nonzero;stroke:none" d="m3293.6 7215.5 135.74-83.99c98.35-60.86 133.47-187 80.95-290.04-10.45-20.49-16.97-33.69-15.66-32.18 5.14 5.91-207.9 404.49-207.9 404.49" transform="matrix(.13333 0 0 -.13333 0 1200)"/><path style="fill:#f9ae9a;fill-opacity:1;fill-rule:nonzero;stroke:none" d="M2940.34 5917.23h-70.22c-64.44 0-117.16 52.72-117.16 117.15v330.12c0 64.43 52.72 117.15 117.16 117.15h70.22c64.43 0 117.15-52.72 117.15-117.15v-330.12c0-64.43-52.72-117.15-117.15-117.15" transform="matrix(.13333 0 0 -.13333 0 1200)"/><path style="fill:#774032;fill-opacity:1;fill-rule:nonzero;stroke:none" d="M3492.24 6809.29c3.15-26.59-121.44-71.54-122.9-99.59l20.26-56.31c-152.97 55.46-18.01-29.06-18.01-29.27-45.43-134.8-29.64-209.39-159.42-260.67-64.67-25.55-135.64-37.26-209.52-32.03-36.43 2.53-71.36-.04-104.54-2.61-57.21-4.43-109.24-8.86-154.81 12.86-14.86 6.91-28.88 16.75-42.28 29.94-25.33 25.32-47.93 53.16-66.99 83.31-7.32 11.93-14.44 23.86-20.93 36.41-39.14 75.57-119.2 297.45-112.71 388.5 18 257.04 264.26 429.1 547.68 409.64 7.32-.5 14.44-.63 21.77-1.05 153.01-10.67 283.84-91.89 363.79-209.73 4.19-6.29 8.37-12.77 12.35-19.26v-.21c23.02-37.47 35.38-197.81 35.38-197.81 5.24-16.95 8.79-34.33 10.88-52.12" transform="matrix(.13333 0 0 -.13333 0 1200)"/><path style="fill:#fabca8;fill-opacity:1;fill-rule:nonzero;stroke:none" d="m3480.82 6727.03-3.56-70.54-6.07-117.01-9.52-41.48c-.84-18.42-10.16-115.3-13.51-132.88-32.24-165.57-140.95-200.74-309.67-221.67-5.01-.84-10.25-1.26-15.28-1.46-18-1.89-36.21-2.1-54.84-1.26-18 .84-35.58 3.14-52.96 6.49-33.69 6.07-66.14 16.75-96.07 30.98l-.42.2c-74.52 35.17-135.85 92.73-175.62 163.27-30.34 53.38-48.35 114.08-50.23 178.35-.22 4.39-.22 8.78-.22 13.39-.2 5.02 0 10.46.42 15.91v2.72l.42 12.77 1.89 33.28 5.65 114.92.2 1.04v.21l1.06 21.35.83 16.54.84 15.27.21 3.99c1.68 26.58 6.91 52.12 14.86 76.61 5.02 17.37 11.51 34.11 18.84 50.23 1.05 2.51 1.88 4.81 3.14 7.33a342.064 342.064 0 0 0 20.3 38.72v.21c28.47 47.51 66.57 88.54 111.78 120.15 9 6.49 18.41 12.56 27.84 18.21 65.73 38.51 143.17 59.24 224.6 55.05 67.82-3.56 117.94-23.86 172.57-56.72 33.06-19.89 63-44.38 88.75-72.64 36.63-39.77 60.49-86.66 78.07-138.36 1.05-2.93 1.89-5.86 2.73-8.79 5.23-16.95 8.79-34.33 10.87-52.12 3.15-26.59 3.57-54.21 2.1-82.26" transform="matrix(.13333 0 0 -.13333 0 1200)"/><path style="fill:#774032;fill-opacity:1;fill-rule:nonzero;stroke:none" d="M3338.37 7076.8c82.76-228.03-135.13-209.45-145.27-314.17-1.14-11.78-5.33-29.11-8.44-114.87l-16.65-53.65c-4.82-16.74-20.31-28.25-37.68-28.25-21.77 0-39.35 17.58-39.35 39.34v1.05l1.89 85.4-42.5-112.61c-30.56-81.21-77.03-154.68-135.64-216.64-48.77-51.28-105.91-94.82-169.33-127.9 0 0-265.84 158.04-265.84 518.9 0 28.68 1.68 58.61 5.23 89.8 3.35 28.05 7.95 54.22 14.24 78.7 110.09 448.36 661.03 295.35 713.98 275.47 55.68-20.94 125.36-120.57 125.36-120.57" transform="matrix(.13333 0 0 -.13333 0 1200)"/><path style="fill:#fabca8;fill-opacity:1;fill-rule:nonzero;stroke:none" d="m3527.7 6485.37-.09-5.91c-.72-24.67-22.09-44.26-74.99-42.74l7.4 192.56c42.96-65.51 63.79-103.59 67.68-143.91" transform="matrix(.13333 0 0 -.13333 0 1200)"/><path style="fill:#774032;fill-opacity:1;fill-rule:nonzero;stroke:none" d="M3498.92 6718.43h-117.74c-13.67 0-24.86 11.18-24.86 24.86 0 13.67 11.19 24.85 24.86 24.85h117.74c13.67 0 24.86-11.18 24.86-24.85 0-13.68-11.19-24.86-24.86-24.86" transform="matrix(.13333 0 0 -.13333 0 1200)"/><path style="fill:#181d3d;fill-opacity:1;fill-rule:nonzero;stroke:none" d="M3432.76 6629.78c-9.77 0-17.76 7.99-17.76 17.76v26.15c0 9.76 7.99 17.76 17.76 17.76 9.76 0 17.76-8 17.76-17.76v-26.15c0-9.77-8-17.76-17.76-17.76" transform="matrix(.13333 0 0 -.13333 0 1200)"/><path style="fill:#5f3635;fill-opacity:1;fill-rule:nonzero;stroke:none" d="M2745.4 6234.5s-16.61 9.87-41.51 30.31c-19.93 16.35-45.16 39.46-71.47 69.7-72.39 83.21-152.86 220.36-152.86 418.89 0 28.68 1.68 58.61 5.23 89.8 3.35 28.05 7.95 54.22 14.24 78.7 11.72-68.65 42.7-172.68 121.82-301.2 120.36-195.51 250.98-246.37 293.88-258.3-34.62-36.41-73.47-68.91-115.78-96.54a631.228 631.228 0 0 0-45.99-27.34c-2.51-1.36-5.03-2.7-7.56-4.02" transform="matrix(.13333 0 0 -.13333 0 1200)"/><path style="fill:#774032;fill-opacity:1;fill-rule:nonzero;stroke:none" d="m3451.67 6377.11-3.51-134.74c0-114.86-136.04-161.02-237.01-150.1l-160.93 17.4 16.2 139.46 43.92 266.88-70.95 199.32 146.12-60.66-.02-.22c-11.04-158.37 102.43-286.38 261.02-279.06l5.16 1.72" transform="matrix(.13333 0 0 -.13333 0 1200)"/><path style="fill:#f9ae9a;fill-opacity:1;fill-rule:nonzero;stroke:none" d="M3081.31 6720.3c16.26-.09 29.37-13.37 29.26-29.63l-.69-100.27-.69-87.58-34.43.2c-2.52.05-5.04.09-7.41.46-57.57 4.36-103.02 54.7-102.73 112.25.1 29.87 12.82 55.27 33.01 75.03 18.08 17.62 42.48 27.66 69.45 29.16l.16.01c3.12.45 5.78.57 8.94.4l5.13-.03" transform="matrix(.13333 0 0 -.13333 0 1200)"/><path style="fill:#181d3d;fill-opacity:1;fill-rule:nonzero;stroke:none" d="M2047.5 3617.09h926.01v170.75H2047.5v-170.75" transform="matrix(.13333 0 0 -.13333 0 1200)"/><path style="fill:#2f396e;fill-opacity:1;fill-rule:nonzero;stroke:none" d="M1731.67 2195.14v-65.49" transform="matrix(.13333 0 0 -.13333 0 1200)"/><path style="fill:#6b6881;fill-opacity:1;fill-rule:nonzero;stroke:none" d="M5588.28 3602.67h848.24v170.75h-848.24v-170.75" transform="matrix(.13333 0 0 -.13333 0 1200)"/><path style="fill:#6b6881;fill-opacity:1;fill-rule:nonzero;stroke:none" d="M6492.93 1949.46H6300v2404.62h192.93V1949.46" transform="matrix(.13333 0 0 -.13333 0 1200)"/><path style="fill:#b1aac3;fill-opacity:1;fill-rule:nonzero;stroke:none" d="M5718.25 1949.46h-192.93V4368.5h192.93V1949.46" transform="matrix(.13333 0 0 -.13333 0 1200)"/><path style="fill:#6b6881;fill-opacity:1;fill-rule:nonzero;stroke:none" d="M5718.25 3434.01h-192.93v1032.08h192.93V3434.01M961.617 3602.67h848.233v170.75H961.617v-170.75" transform="matrix(.13333 0 0 -.13333 0 1200)"/><path style="fill:#6b6881;fill-opacity:1;fill-rule:nonzero;stroke:none" d="M1866.27 1949.46h-192.93v2404.62h192.93V1949.46m-774.68 0H898.652V4368.5h192.938V1949.46" transform="matrix(.13333 0 0 -.13333 0 1200)"/><path style="fill:#514e65;fill-opacity:1;fill-rule:nonzero;stroke:none" d="M4468.11 4599.72h636.723v1369.55H4468.11z" transform="matrix(.13333 0 0 -.13333 0 1200)"/><path style="fill:#dfdfdd;fill-opacity:1;fill-rule:nonzero;stroke:none" d="M5782.03 5049.54H3688.97V6327.9c0 46.12 37.39 83.51 83.5 83.51h1926.05c46.12 0 83.51-37.39 83.51-83.51V5049.54" transform="matrix(.13333 0 0 -.13333 0 1200)"/><path style="fill:#dfdfdd;fill-opacity:1;fill-rule:nonzero;stroke:none" d="M5585.46 4844.74H3845.53c-97.37 0-176.31 78.94-176.31 176.31v67.54h2092.55v-67.54c0-97.37-78.93-176.31-176.31-176.31" transform="matrix(.13333 0 0 -.13333 0 1200)"/><path style="fill:#6f7083;fill-opacity:1;fill-rule:nonzero;stroke:none" d="M5709.9 6328V5049.5H3616.8V6328c0 46.1 37.4 83.4 83.5 83.4h1926.1c46.1 0 83.5-37.3 83.5-83.4" transform="matrix(.13333 0 0 -.13333 0 1200)"/><path style="fill:#233366;fill-opacity:1;fill-rule:nonzero;stroke:none" d="M5633.7 6330.6V5167.4c0-4.2-3.5-7.7-7.8-7.7H3700.7c-4.2 0-7.7 3.5-7.7 7.7v1163.2c0 4.3 3.5 7.7 7.7 7.7h1925.2c4.3 0 7.8-3.4 7.8-7.7" transform="matrix(.13333 0 0 -.13333 0 1200)"/><path style="fill:#aca4c7;fill-opacity:1;fill-rule:nonzero;stroke:none" d="M5709.7 5088.6v-67.5c0-70.8-41.7-131.9-101.9-159.9-22.6-10.6-47.9-16.5-74.5-16.5H3793.4c-97.4 0-176.3 79-176.3 176.4v67.5h2092.6" transform="matrix(.13333 0 0 -.13333 0 1200)"/><path style="fill:#6f84ca;fill-opacity:1;fill-rule:nonzero;stroke:none" d="M4455.64 6172.13h-650.26v22.51h650.26v-22.51" transform="matrix(.13333 0 0 -.13333 0 1200)"/><path style="fill:#dfdfdd;fill-opacity:1;fill-rule:nonzero;stroke:none" d="M4737.6 6172.13h307.891v22.512H4737.6z" transform="matrix(.13333 0 0 -.13333 0 1200)"/><path style="fill:#fbc02c;fill-opacity:1;fill-rule:nonzero;stroke:none" d="M5182.12 6172.13h307.891v22.512H5182.12z" transform="matrix(.13333 0 0 -.13333 0 1200)"/><path style="fill:#6f84ca;fill-opacity:1;fill-rule:nonzero;stroke:none" d="M5072.89 6172.13h72.84v22.512h-72.84z" transform="matrix(.13333 0 0 -.13333 0 1200)"/><path style="fill:#eb3d3c;fill-opacity:1;fill-rule:nonzero;stroke:none" d="M4486.13 6172.13h215.813v22.512H4486.13z" transform="matrix(.13333 0 0 -.13333 0 1200)"/><path style="fill:#6f84ca;fill-opacity:1;fill-rule:nonzero;stroke:none" d="M3805.38 5595.89h650.262v22.508H3805.38z" transform="matrix(.13333 0 0 -.13333 0 1200)"/><path style="fill:#dfdfdd;fill-opacity:1;fill-rule:nonzero;stroke:none" d="M4737.6 5595.89h307.891v22.508H4737.6z" transform="matrix(.13333 0 0 -.13333 0 1200)"/><path style="fill:#fbc02c;fill-opacity:1;fill-rule:nonzero;stroke:none" d="M5490.01 5595.89h-307.89v22.51h307.89v-22.51" transform="matrix(.13333 0 0 -.13333 0 1200)"/><path style="fill:#6f84ca;fill-opacity:1;fill-rule:nonzero;stroke:none" d="M5145.73 5595.89h-72.83v22.51h72.83v-22.51" transform="matrix(.13333 0 0 -.13333 0 1200)"/><path style="fill:#9f9aaf;fill-opacity:1;fill-rule:nonzero;stroke:none" d="M4486.13 5595.89h215.813v22.508H4486.13z" transform="matrix(.13333 0 0 -.13333 0 1200)"/><path style="fill:#6f84ca;fill-opacity:1;fill-rule:nonzero;stroke:none" d="M4839.75 5787.97h650.262v22.512H4839.75z" transform="matrix(.13333 0 0 -.13333 0 1200)"/><path style="fill:#dfdfdd;fill-opacity:1;fill-rule:nonzero;stroke:none" d="M4249.9 5787.97h307.891v22.512H4249.9z" transform="matrix(.13333 0 0 -.13333 0 1200)"/><path style="fill:#fbc02c;fill-opacity:1;fill-rule:nonzero;stroke:none" d="M3805.38 5787.97h307.89v22.51h-307.89v-22.51" transform="matrix(.13333 0 0 -.13333 0 1200)"/><path style="fill:#6f84ca;fill-opacity:1;fill-rule:nonzero;stroke:none" d="M4149.66 5787.97h72.84v22.51h-72.84v-22.51" transform="matrix(.13333 0 0 -.13333 0 1200)"/><path style="fill:#9f9aaf;fill-opacity:1;fill-rule:nonzero;stroke:none" d="M4593.45 5787.97h215.813v22.512H4593.45z" transform="matrix(.13333 0 0 -.13333 0 1200)"/><path style="fill:#eb3d3c;fill-opacity:1;fill-rule:nonzero;stroke:none" d="M4049.23 6076.09h-243.85v22.51h243.85v-22.51" transform="matrix(.13333 0 0 -.13333 0 1200)"/><path style="fill:#6f84ca;fill-opacity:1;fill-rule:nonzero;stroke:none" d="M4534.39 6076.09h104.691v22.512H4534.39z" transform="matrix(.13333 0 0 -.13333 0 1200)"/><path style="fill:#dfdfdd;fill-opacity:1;fill-rule:nonzero;stroke:none" d="M4978.91 6076.09h511.102v22.512H4978.91z" transform="matrix(.13333 0 0 -.13333 0 1200)"/><path style="fill:#6f84ca;fill-opacity:1;fill-rule:nonzero;stroke:none" d="M4666.47 6076.09h276.051v22.512H4666.47zm-167.74 0h-419.02v22.51h419.02v-22.51m-449.5-576.25h-243.85v22.52h243.85v-22.52m485.16 0h104.691v22.52H4534.39zm955.62 0h-511.1v22.52h511.1v-22.52m-823.54 0h276.051v22.52H4666.47zm-586.76 0h419.02v22.52h-419.02z" transform="matrix(.13333 0 0 -.13333 0 1200)"/><path style="fill:#eb3d3c;fill-opacity:1;fill-rule:nonzero;stroke:none" d="M4049.23 5691.93h-243.85v22.51h243.85v-22.51" transform="matrix(.13333 0 0 -.13333 0 1200)"/><path style="fill:#6f84ca;fill-opacity:1;fill-rule:nonzero;stroke:none" d="M4534.39 5691.93h104.691v22.512H4534.39z" transform="matrix(.13333 0 0 -.13333 0 1200)"/><path style="fill:#dfdfdd;fill-opacity:1;fill-rule:nonzero;stroke:none" d="M5490.01 5691.93h-511.1v22.51h511.1v-22.51" transform="matrix(.13333 0 0 -.13333 0 1200)"/><path style="fill:#6f84ca;fill-opacity:1;fill-rule:nonzero;stroke:none" d="M4666.47 5691.93h276.051v22.512H4666.47zm-586.76 0h419.02v22.512h-419.02z" transform="matrix(.13333 0 0 -.13333 0 1200)"/><path style="fill:#dfdfdd;fill-opacity:1;fill-rule:nonzero;stroke:none" d="M4049.23 5980.05h-243.85v22.51h243.85v-22.51" transform="matrix(.13333 0 0 -.13333 0 1200)"/><path style="fill:#6f84ca;fill-opacity:1;fill-rule:nonzero;stroke:none" d="M4079.71 5980.05h419.02v22.508h-419.02z" transform="matrix(.13333 0 0 -.13333 0 1200)"/><path style="fill:#dfdfdd;fill-opacity:1;fill-rule:nonzero;stroke:none" d="M4254.88 5884.01h243.852v22.508H4254.88z" transform="matrix(.13333 0 0 -.13333 0 1200)"/><path style="fill:#6f84ca;fill-opacity:1;fill-rule:nonzero;stroke:none" d="M3805.38 5884.01h419.02v22.51h-419.02v-22.51" transform="matrix(.13333 0 0 -.13333 0 1200)"/><path style="fill:#43415d;fill-opacity:1;fill-rule:nonzero;stroke:none" d="M5090.12 4563.63h-853.48c-26.19 0-47.42 21.23-47.42 47.42s21.23 47.42 47.42 47.42h853.48c26.19 0 47.42-21.23 47.42-47.42s-21.23-47.42-47.42-47.42" transform="matrix(.13333 0 0 -.13333 0 1200)"/><path style="fill:#e88262;fill-opacity:1;fill-rule:nonzero;stroke:none" d="M6657.85 4355.93H3966.76v139.11c0 42.1 34.13 76.24 76.23 76.24h2538.62c42.1 0 76.24-34.14 76.24-76.24v-139.11" transform="matrix(.13333 0 0 -.13333 0 1200)"/><path style="fill:#a43937;fill-opacity:1;fill-rule:nonzero;stroke:none" d="M5873.4 4495v-139.1H692.301V4495c0 42.1 34.101 76.3 76.199 76.3h5028.7c42.1 0 76.2-34.2 76.2-76.3" transform="matrix(.13333 0 0 -.13333 0 1200)"/><path style="fill:#812a2c;fill-opacity:1;fill-rule:nonzero;stroke:none" d="M4374.3 4571.3c-41.1-67-90.1-146.9-132-215.4H2974.7l17.3 215.4h1382.3" transform="matrix(.13333 0 0 -.13333 0 1200)"/><path style="fill:#7b2c50;fill-opacity:1;fill-rule:nonzero;stroke:none" d="M6927.11 1949.46h1331.43v1668.4H6927.11z" transform="matrix(.13333 0 0 -.13333 0 1200)"/><path style="fill:#672d52;fill-opacity:1;fill-rule:nonzero;stroke:none" d="M6455.29 1949.46h1308.46v1668.4H6455.29z" transform="matrix(.13333 0 0 -.13333 0 1200)"/><path style="fill:#df6b45;fill-opacity:1;fill-rule:nonzero;stroke:none" d="M6440.38 3041.58H7681.6v451.35H6440.38v-451.35m0-529.64H7681.6v451.35H6440.38v-451.35m0-562.48H7681.6v484.19H6440.38v-484.19" transform="matrix(.13333 0 0 -.13333 0 1200)"/><path style="fill:#fff;fill-opacity:1;fill-rule:nonzero;stroke:none" d="M6835.31 3243.08h310.31c13.3 0 24.18 10.88 24.18 24.18 0 13.3-10.88 24.18-24.18 24.18h-310.31c-13.3 0-24.18-10.88-24.18-24.18 0-13.3 10.88-24.18 24.18-24.18m-12.09-525.91h310.31c13.3 0 24.18 10.88 24.18 24.18 0 13.3-10.88 24.18-24.18 24.18h-310.31c-13.3 0-24.18-10.88-24.18-24.18 0-13.3 10.88-24.18 24.18-24.18m0-525.91h310.31c13.3 0 24.18 10.88 24.18 24.18 0 13.3-10.88 24.18-24.18 24.18h-310.31c-13.3 0-24.18-10.88-24.18-24.18 0-13.3 10.88-24.18 24.18-24.18" transform="matrix(.13333 0 0 -.13333 0 1200)"/><path style="fill:#7b2c50;fill-opacity:1;fill-rule:nonzero;stroke:none" d="m3419.48 1847.45 621.92-6.62c37.09-.39 67.47 29.35 67.86 66.44.31 28.56-17.49 54.19-44.35 63.88l-306.57 110.61-336.42-4.62-2.44-229.69" transform="matrix(.13333 0 0 -.13333 0 1200)"/><path style="fill:#181d3d;fill-opacity:1;fill-rule:nonzero;stroke:none" d="m4053.68 1823.43-629.62 2.03.14 45.12 674.74-2.18c-.08-24.92-20.35-45.06-45.26-44.97" transform="matrix(.13333 0 0 -.13333 0 1200)"/><path style="fill:none;stroke:#181d3d;stroke-width:14.93309975;stroke-linecap:round;stroke-linejoin:miter;stroke-miterlimit:10;stroke-dasharray:none;stroke-opacity:1" d="m3750.44 1990.84 73.29 77.82m-19.85-100.57 73.29 77.83m-22.15-108.2 82.51 88.25" transform="matrix(.13333 0 0 -.13333 0 1200)"/><path style="fill:#1c1c27;fill-opacity:1;fill-rule:nonzero;stroke:none" d="M3398.29 2051.77c36.09 606.66 26.35 1167.53-20.91 1281.12-48.46 70.54-426.28 223.4-803.89 239.89l176.71 385.77c495.28-24.89 849.31-210.71 973.14-423.11 52.28-89.64 97.68-270.46 73.19-889.05-12.83-324-28.65-577.82-28.65-577.82l-369.59-16.8" transform="matrix(.13333 0 0 -.13333 0 1200)"/><path style="fill:#9d4333;fill-opacity:1;fill-rule:nonzero;stroke:none" d="m3973.26 1831.98 621.94-4.3c37.09-.26 67.36 29.6 67.61 66.69.2 28.56-17.69 54.12-44.59 63.71l-306.97 109.47-336.41-5.87-1.58-229.7" transform="matrix(.13333 0 0 -.13333 0 1200)"/><path style="fill:#181d3d;fill-opacity:1;fill-rule:nonzero;stroke:none" d="m4607.54 1810.32-639.62-.31-.03 45.12 684.75.33c.01-24.92-20.18-45.13-45.1-45.14" transform="matrix(.13333 0 0 -.13333 0 1200)"/><path style="fill:none;stroke:#181d3d;stroke-width:14.93309975;stroke-linecap:round;stroke-linejoin:miter;stroke-miterlimit:10;stroke-dasharray:none;stroke-opacity:1" d="m4303.68 1976.6 73 78.1m-19.47-100.64 73 78.1m-21.74-108.29 82.17 88.56" transform="matrix(.13333 0 0 -.13333 0 1200)"/><path style="fill:#1c1c27;fill-opacity:1;fill-rule:nonzero;stroke:none" d="M3950.81 2051.77c36.09 606.66 26.35 1167.53-20.9 1281.12-48.47 70.54-426.28 223.4-803.89 239.89l176.7 385.77c495.28-24.89 849.32-210.71 973.14-423.11 52.28-89.64 97.68-270.46 73.19-889.05-12.83-324-28.64-577.82-28.64-577.82l-369.6-16.8" transform="matrix(.13333 0 0 -.13333 0 1200)"/><path style="fill:#1c1c27;fill-opacity:1;fill-rule:nonzero;stroke:none" d="M3418.59 3847.55c0-67.94-24.19-130.21-64.35-178.75-51.37-62.26-129.32-101.99-216.53-101.99h-472.04c-14.03 0-27.77 1.04-41.21 3.14-34.65 4.93-67.2 16.42-96.47 33-5.23 2.83-10.3 5.97-15.24 9.26-76.9 50.02-127.82 136.79-127.82 235.34l8.66 149.78 1016.8 8.81 8.2-158.59" transform="matrix(.13333 0 0 -.13333 0 1200)"/><path style="fill:#f9ae9a;fill-opacity:1;fill-rule:nonzero;stroke:none" d="m3742.88 4647.53 243.31 38.89c17.77 2.84 29.98 19.7 27.14 37.47s-19.7 29.98-37.47 27.14l-243.31-38.89c-17.76-2.84-29.98-19.7-27.14-37.47s19.7-29.98 37.47-27.14m77.47-65.78 195.36 31.22c17.77 2.84 29.98 19.7 27.14 37.47s-19.7 29.98-37.47 27.15l-195.36-31.23c-17.76-2.84-29.98-19.7-27.14-37.47s19.7-29.98 37.47-27.14m-45.16-85.31 231.23 36.96c17.76 2.84 29.98 19.7 27.13 37.47-2.83 17.77-19.7 29.98-37.47 27.14l-231.23-36.96c-17.76-2.84-29.98-19.7-27.14-37.47 2.85-17.77 19.71-29.98 37.48-27.14" transform="matrix(.13333 0 0 -.13333 0 1200)"/><path style="fill:#f9ae9a;fill-opacity:1;fill-rule:nonzero;stroke:none" d="M3847.91 4710.44c-2.61-.31-32.46.1-64.79.64a352.194 352.194 0 0 1-161.23-36.1l-95.96-47.21s54.96-163.09 62.54-164.46c185.01-33.44 248.48 50.56 248.48 50.56l10.96 196.57" transform="matrix(.13333 0 0 -.13333 0 1200)"/><path style="fill:#fff;fill-opacity:1;fill-rule:nonzero;stroke:none" d="M3704.66 4444.16h-82.13v266.92h82.13v-266.92" transform="matrix(.13333 0 0 -.13333 0 1200)"/><path style="fill:#1c1c27;fill-opacity:1;fill-rule:nonzero;stroke:none" d="M3084.32 4415.19c-193.64 0-370.68 113.03-452.03 289.06l-4.02 8.69-253.45 773.97 312.22 102.24 246.98-754.23c29.31-56.28 88.25-91.9 151.97-91.19l538.4 5.33 3.26-328.52-538.41-5.33c-1.63-.01-3.29-.02-4.92-.02" transform="matrix(.13333 0 0 -.13333 0 1200)"/><path style="fill:#f9ae9a;fill-opacity:1;fill-rule:nonzero;stroke:none" d="M4841.05 4734.31c-20.13 35.88-50.36 65.25-87.26 83.43l-.87.43a351.823 351.823 0 0 1-161.32 35.63l-106.93-2.07s-27.09-231.99-25.7-224.42c2.76 15.06 261.41 11.19 379.93 8.62 25.67-.55 42.18 27.01 29.62 49.41l-27.47 48.97" transform="matrix(.13333 0 0 -.13333 0 1200)"/><path style="fill:#fff;fill-opacity:1;fill-rule:nonzero;stroke:none" d="M4522 4595.79h-102.04v273.41H4522v-273.41" transform="matrix(.13333 0 0 -.13333 0 1200)"/><path style="fill:#232334;fill-opacity:1;fill-rule:nonzero;stroke:none" d="M3920.57 4564.52c-193.63 0-370.67 113.03-452.03 289.06l-364.97 789.76 298.23 137.81 364.96-789.75c27.92-60.4 88.32-99.15 155.48-98.35l538.4 5.33 3.25-328.51-538.4-5.33c-1.63-.01-3.28-.02-4.92-.02" transform="matrix(.13333 0 0 -.13333 0 1200)"/><path style="fill:#232334;fill-opacity:1;fill-rule:nonzero;stroke:none" d="m3505.67 5488.84-6.09-689.61-7.71-878.04s-18.95-21.18-75.36-50.84c-48.95-25.81-125.94-58.04-243.21-88.47-136.66-35.5-329.12-40.98-493.55-36.95-181.41 4.45-328.6 20.4-328.6 20.4l3.77 1723.51c0 242.53 175.57 444.25 406.62 484.89 27.77 4.8 56.32 7.28 85.55 7.28h166.41c271.76 0 492.17-220.41 492.17-492.17" transform="matrix(.13333 0 0 -.13333 0 1200)"/><path style="fill:#b1aac3;fill-opacity:1;fill-rule:nonzero;stroke:none" d="M2904.06 3225.98V2272.3h-166.14v953.68h166.14" transform="matrix(.13333 0 0 -.13333 0 1200)"/><path style="fill:#6b6881;fill-opacity:1;fill-rule:nonzero;stroke:none" d="M2737.92 3172.21v-208.74l166.14 60.6v141.32c-41.58 1.85-121.6 4.98-166.14 6.82" transform="matrix(.13333 0 0 -.13333 0 1200)"/><path style="fill:#292935;fill-opacity:1;fill-rule:nonzero;stroke:none" d="M3332.09 3143.56h-994.74c-50.98 0-92.7 41.72-92.7 92.7 0 50.99 41.72 92.7 92.7 92.7h994.74c50.99 0 92.7-41.71 92.7-92.7 0-50.98-41.71-92.7-92.7-92.7m193.02-1179.2h-103.93c0 117.04-101.01 212.26-225.17 212.26H2438.8c-124.17 0-225.18-95.22-225.18-212.26h-103.93c0 171.06 147.64 310.22 329.11 310.22h757.21c181.47 0 329.1-139.16 329.1-310.22" transform="matrix(.13333 0 0 -.13333 0 1200)"/><path style="fill:#292935;fill-opacity:1;fill-rule:nonzero;stroke:none" d="M2941.13 2272.25h-242.51v149.29h242.51v-149.29" transform="matrix(.13333 0 0 -.13333 0 1200)"/><path style="fill:#181d3d;fill-opacity:1;fill-rule:nonzero;stroke:none" d="M2244.02 1869.63c0-44.94-38.65-81.37-86.33-81.37s-86.33 36.43-86.33 81.37c0 44.95 38.65 81.38 86.33 81.38s86.33-36.43 86.33-81.38" transform="matrix(.13333 0 0 -.13333 0 1200)"/><path style="fill:#1c254a;fill-opacity:1;fill-rule:nonzero;stroke:none" d="M2282.19 1876.81h-236.27v21.52c0 60.91 49.38 110.29 110.3 110.29h15.67c60.92 0 110.3-49.38 110.3-110.29v-21.52" transform="matrix(.13333 0 0 -.13333 0 1200)"/><path style="fill:#181d3d;fill-opacity:1;fill-rule:nonzero;stroke:none" d="M3564.35 1869.63c0-44.94-38.65-81.37-86.33-81.37-47.67 0-86.33 36.43-86.33 81.37 0 44.95 38.66 81.38 86.33 81.38 47.68 0 86.33-36.43 86.33-81.38" transform="matrix(.13333 0 0 -.13333 0 1200)"/><path style="fill:#1c254a;fill-opacity:1;fill-rule:nonzero;stroke:none" d="M3602.52 1876.81h-236.27v21.52c0 60.91 49.38 110.29 110.3 110.29h15.68c60.91 0 110.29-49.38 110.29-110.29v-21.52" transform="matrix(.13333 0 0 -.13333 0 1200)"/><path style="fill:#292935;fill-opacity:1;fill-rule:nonzero;stroke:none" d="M2893.55 1950.37h-137.57v293.89h137.57v-293.89" transform="matrix(.13333 0 0 -.13333 0 1200)"/><path style="fill:#181d3d;fill-opacity:1;fill-rule:nonzero;stroke:none" d="M2914 1869.63c0-44.94-38.65-81.37-86.33-81.37s-86.33 36.43-86.33 81.37c0 44.95 38.65 81.38 86.33 81.38s86.33-36.43 86.33-81.38" transform="matrix(.13333 0 0 -.13333 0 1200)"/><path style="fill:#1c254a;fill-opacity:1;fill-rule:nonzero;stroke:none" d="M2952.16 1876.81H2715.9v21.52c0 60.91 49.38 110.29 110.29 110.29h15.68c60.91 0 110.29-49.38 110.29-110.29v-21.52" transform="matrix(.13333 0 0 -.13333 0 1200)"/><path style="fill:#9e1f38;fill-opacity:1;fill-rule:nonzero;stroke:none" d="m1498.17 5020.43 222.49-1606.1c13.53-97.67 95.52-171.36 194.07-174.43l811.94-9.3-451.48 2019.56-576.33.32c-122.88.19-217.55-108.32-200.69-230.05" transform="matrix(.13333 0 0 -.13333 0 1200)"/><path style="fill:#ef3140;fill-opacity:1;fill-rule:nonzero;stroke:none" d="M3685.49 3230.6H2556.77c-96.23 0-174.97 78.73-174.97 174.96s78.74 174.97 174.97 174.97h1128.72c96.23 0 174.96-78.74 174.96-174.97s-78.73-174.96-174.96-174.96" transform="matrix(.13333 0 0 -.13333 0 1200)"/><path style="fill:#1c1c27;fill-opacity:1;fill-rule:nonzero;stroke:none" d="M2620.85 5540.71c-21.86-316.6 39.78-1458.52 58.9-1795.78-181.41 4.45-328.6 20.4-328.6 20.4l3.77 1723.51c0 242.53 175.57 444.25 406.62 484.89 0 0-114.97-60.1-140.69-433.02" transform="matrix(.13333 0 0 -.13333 0 1200)"/><path style="fill:#fff;fill-opacity:1;fill-rule:nonzero;stroke:none" d="M3186.74 5951.18h-507.73v141.86l507.73-60v-81.86" transform="matrix(.13333 0 0 -.13333 0 1200)"/><path style="fill:#ef3140;fill-opacity:1;fill-rule:nonzero;stroke:none" d="m2367.17 3451.61-235.85 1647.13c-10.51 73.38 44.59 141.52 122.43 151.42 77.86 9.91 150.15-42.03 160.65-115.41l235.85-1647.13c10.51-73.38-44.59-141.52-122.44-151.42-77.84-9.91-118.13-64.94-160.64 115.41" transform="matrix(.13333 0 0 -.13333 0 1200)"/><path style="fill:#1c1c27;fill-opacity:1;fill-rule:nonzero;stroke:none" d="m3499.58 4799.23-7.71-878.04s-18.95-21.18-75.36-50.84l-116.93 1323.32s107.15-267.82 200-394.44" transform="matrix(.13333 0 0 -.13333 0 1200)"/><g clip-path="url(#a)" transform="matrix(.13333 0 0 -.13333 0 1200)"><path style="fill:#777494;fill-opacity:1;fill-rule:nonzero;stroke:none" d="M4983.3 4844.7h14.52v15.031h-14.52z"/></g><path style="fill:#4e4e60;fill-opacity:1;fill-rule:nonzero;stroke:none" d="M5487.4 5088.6h-270c22.22 23.35 44.82 47.18 67.41 71.1h222.3l-19.71-71.1" transform="matrix(.13333 0 0 -.13333 0 1200)"/><path style="fill:#1b2749;fill-opacity:1;fill-rule:nonzero;stroke:none" d="M5507.11 5159.7h-222.3c126.81 134.24 253.74 271.63 315.19 347l2.65-2.32-95.54-344.68" transform="matrix(.13333 0 0 -.13333 0 1200)"/><path style="fill:#777494;fill-opacity:1;fill-rule:nonzero;stroke:none" d="M5419.8 4844.7h-62.05v150.36c0 18.97-15.45 34.41-34.42 34.41h-162.29c18.35 19.21 37.22 38.99 56.36 59.13h270l-67.6-243.9" transform="matrix(.13333 0 0 -.13333 0 1200)"/><path style="fill:#dfdfdd;fill-opacity:1;fill-rule:nonzero;stroke:none" d="M5404.39 4573.67h1088.6c6.05 8.7 10.84 18.54 13.74 29.13l243.56 879.23c11.73 41.88-19.8 83.38-63.32 83.38h-957.81c-29.51 0-55.37-19.81-63.31-48.19l-261.46-943.55" transform="matrix(.13333 0 0 -.13333 0 1200)"/><path style="fill:#9f9aaf;fill-opacity:1;fill-rule:nonzero;stroke:none" d="M6698.3 5513.4 6454.9 4635c-11.3-40.9-48.5-69.2-91-69.2H5342.5l272.4 982.8c7.9 28.4 33.7 48.1 63.2 48.1H6635c43.5 0 74.9-41.4 63.3-83.3" transform="matrix(.13333 0 0 -.13333 0 1200)"/><path style="fill:#233366;fill-opacity:1;fill-rule:nonzero;stroke:none" d="m6644.52 5474.73-198.9-716.27-41.73-150.02h-1013.3l41.6 150.02 208.05 748.86c7.27 26.32 31.34 44.49 58.66 44.49h886.96c40.24 0 69.44-38.36 58.66-77.08" transform="matrix(.13333 0 0 -.13333 0 1200)"/><path style="fill:#eff1f2;fill-opacity:1;fill-rule:nonzero;stroke:none" d="M6047.63 5454.38h-311.89l6.95 21.94h311.88l-6.94-21.94" transform="matrix(.13333 0 0 -.13333 0 1200)"/><path style="fill:#eb3d3c;fill-opacity:1;fill-rule:nonzero;stroke:none" d="M6330.52 5454.38h-147.67l6.95 21.94h147.67l-6.95-21.94" transform="matrix(.13333 0 0 -.13333 0 1200)"/><path style="fill:#9f9aaf;fill-opacity:1;fill-rule:nonzero;stroke:none" d="M6543.73 5454.38h-147.68l6.95 21.94h147.67l-6.94-21.94" transform="matrix(.13333 0 0 -.13333 0 1200)"/><path style="fill:#6f84ca;fill-opacity:1;fill-rule:nonzero;stroke:none" d="M6378.6 5454.38h-34.93l6.94 21.94h34.93l-6.94-21.94" transform="matrix(.13333 0 0 -.13333 0 1200)"/><path style="fill:#9f9aaf;fill-opacity:1;fill-rule:nonzero;stroke:none" d="M6165.75 5454.38h-103.5l6.94 21.94h103.5l-6.94-21.94" transform="matrix(.13333 0 0 -.13333 0 1200)"/><path style="fill:#dfdfdd;fill-opacity:1;fill-rule:nonzero;stroke:none" d="M5830.44 5080.16h147.67l6.95 21.93h-147.67l-6.95-21.93" transform="matrix(.13333 0 0 -.13333 0 1200)"/><path style="fill:#fbc02c;fill-opacity:1;fill-rule:nonzero;stroke:none" d="M5617.25 5080.16h147.67l6.94 21.93h-147.67l-6.94-21.93" transform="matrix(.13333 0 0 -.13333 0 1200)"/><path style="fill:#6f84ca;fill-opacity:1;fill-rule:nonzero;stroke:none" d="M5782.37 5080.16h34.93l6.95 21.93h-34.93l-6.95-21.93" transform="matrix(.13333 0 0 -.13333 0 1200)"/><path style="fill:#eb3d3c;fill-opacity:1;fill-rule:nonzero;stroke:none" d="M5823.08 5360.83h-116.96l6.94 21.93h116.96l-6.94-21.93" transform="matrix(.13333 0 0 -.13333 0 1200)"/><path style="fill:#6f84ca;fill-opacity:1;fill-rule:nonzero;stroke:none" d="M6105.98 5360.83h-50.21l6.94 21.93h50.21l-6.94-21.93" transform="matrix(.13333 0 0 -.13333 0 1200)"/><path style="fill:#eb3d3c;fill-opacity:1;fill-rule:nonzero;stroke:none" d="M6514.1 5360.83h-245.14l6.95 21.93h245.13l-6.94-21.93" transform="matrix(.13333 0 0 -.13333 0 1200)"/><path style="fill:#6f84ca;fill-opacity:1;fill-rule:nonzero;stroke:none" d="M6251.51 5360.83h-132.4l6.95 21.93h132.4l-6.95-21.93m-212.84 0H5837.7l6.94 21.93h200.97l-6.94-21.93" transform="matrix(.13333 0 0 -.13333 0 1200)"/><path style="fill:#2f396e;fill-opacity:1;fill-rule:nonzero;stroke:none" d="M5645.33 4799.49h-116.96l6.95 21.93h116.95l-6.94-21.93" transform="matrix(.13333 0 0 -.13333 0 1200)"/><path style="fill:#dfdfdd;fill-opacity:1;fill-rule:nonzero;stroke:none" d="M5793.45 5267.27h-116.96l6.95 21.93h116.96l-6.95-21.93m190.88 0h-116.96l6.94 21.93h116.96l-6.94-21.93" transform="matrix(.13333 0 0 -.13333 0 1200)"/><path style="fill:#6f84ca;fill-opacity:1;fill-rule:nonzero;stroke:none" d="M6452.01 5267.27h-200.97l6.94 21.93h200.98l-6.95-21.93m-805.14-93.55h200.97l6.95 21.93h-200.98l-6.94-21.93" transform="matrix(.13333 0 0 -.13333 0 1200)"/><path style="fill:#9f9aaf;fill-opacity:1;fill-rule:nonzero;stroke:none" d="m6458.87 4758.46-42.79-150.02H5377.34l42.66 150.02h1038.87" transform="matrix(.13333 0 0 -.13333 0 1200)"/><path style="fill:#9f9aaf;fill-opacity:1;fill-rule:nonzero;stroke:none" d="M5899.46 4563.43H4655.17c-29.08 0-52.88 23.79-52.88 52.88 0 29.08 23.8 52.88 52.88 52.88h1244.29c29.09 0 52.88-23.8 52.88-52.88 0-29.09-23.79-52.88-52.88-52.88" transform="matrix(.13333 0 0 -.13333 0 1200)"/><path style="fill:#c3c1dd;fill-opacity:1;fill-rule:nonzero;stroke:none" d="M6368.2 5551.81h-391.3l20.5 44.89h391.3l-20.5-44.89" transform="matrix(.13333 0 0 -.13333 0 1200)"/><path style="fill:#3044a0;fill-opacity:1;fill-rule:nonzero;stroke:none" d="M6005.98 4758.46h-391.3l.02.04 18.71 40.99h11.92l6.94 21.93h-8.84l118.13 258.74h3.36l6.94 21.93h-.29l32.71 71.63h43.56l6.95 21.93h-40.5l75.42 165.18h148.96l6.94 21.93h-145.89l32.7 71.62h115.21l6.94 21.94h-112.14l34.47 75.48v.01h391.3v-.01l-34.47-75.48H6189.8l-6.95-21.94h140.87l-32.7-71.62h-15.11l-6.95-21.93h12.05L6006 4758.5l-.02-.04m-168.59 343.63-6.95-21.93h147.67l6.95 21.93h-147.67m-48.07 0-6.95-21.93h34.93l6.95 21.93h-34.93m84.99 187.11-6.94-21.93h116.96l6.94 21.93h-116.96m251.75 93.56-6.95-21.93h132.4l6.95 21.93h-132.4m-63.35 0-6.94-21.93h50.21l6.94 21.93h-50.21m6.48 93.56-6.94-21.94h103.5l6.94 21.94h-103.5" transform="matrix(.13333 0 0 -.13333 0 1200)"/><path style="fill:#f6f8fb;fill-opacity:1;fill-rule:nonzero;stroke:none" d="M6047.63 5454.38h-115.21l10.01 21.94h112.14l-6.94-21.94" transform="matrix(.13333 0 0 -.13333 0 1200)"/><path style="fill:#f2585c;fill-opacity:1;fill-rule:nonzero;stroke:none" d="M6323.72 5454.38h-140.87l6.95 21.94h143.93l-10.01-21.94" transform="matrix(.13333 0 0 -.13333 0 1200)"/><path style="fill:#c3c1dd;fill-opacity:1;fill-rule:nonzero;stroke:none" d="M6165.75 5454.38h-103.5l6.94 21.94h103.5l-6.94-21.94" transform="matrix(.13333 0 0 -.13333 0 1200)"/><path style="fill:#ececf1;fill-opacity:1;fill-rule:nonzero;stroke:none" d="M5978.11 5080.16h-147.67l6.95 21.93h147.67l-6.95-21.93" transform="matrix(.13333 0 0 -.13333 0 1200)"/><path style="fill:#fbda49;fill-opacity:1;fill-rule:nonzero;stroke:none" d="M5764.92 5080.16h-3.36l10.01 21.93h.29l-6.94-21.93" transform="matrix(.13333 0 0 -.13333 0 1200)"/><path style="fill:#98b5e3;fill-opacity:1;fill-rule:nonzero;stroke:none" d="M5817.3 5080.16h-34.93l6.95 21.93h34.93l-6.95-21.93m288.68 280.67h-50.21l6.94 21.93h50.21l-6.94-21.93" transform="matrix(.13333 0 0 -.13333 0 1200)"/><path style="fill:#f2585c;fill-opacity:1;fill-rule:nonzero;stroke:none" d="M6281.01 5360.83h-12.05l6.95 21.93h15.11l-10.01-21.93" transform="matrix(.13333 0 0 -.13333 0 1200)"/><path style="fill:#98b5e3;fill-opacity:1;fill-rule:nonzero;stroke:none" d="M6251.51 5360.83h-132.4l6.95 21.93h132.4l-6.95-21.93m-212.84 0h-148.96l10.01 21.93h145.89l-6.94-21.93" transform="matrix(.13333 0 0 -.13333 0 1200)"/><path style="fill:#424ca8;fill-opacity:1;fill-rule:nonzero;stroke:none" d="M5645.33 4799.49h-11.92l10.02 21.93h8.84l-6.94-21.93" transform="matrix(.13333 0 0 -.13333 0 1200)"/><path style="fill:#ececf1;fill-opacity:1;fill-rule:nonzero;stroke:none" d="M5984.33 5267.27h-116.96l6.94 21.93h116.96l-6.94-21.93" transform="matrix(.13333 0 0 -.13333 0 1200)"/><path style="fill:#98b5e3;fill-opacity:1;fill-rule:nonzero;stroke:none" d="M5847.84 5173.72h-43.56l10.01 21.93h40.5l-6.95-21.93" transform="matrix(.13333 0 0 -.13333 0 1200)"/><path style="fill:#c3c1dd;fill-opacity:1;fill-rule:nonzero;stroke:none" d="M5968.6 4676.7h-391.3l37.38 81.76h391.3l-37.38-81.76" transform="matrix(.13333 0 0 -.13333 0 1200)"/><path style="fill:#3044a0;fill-opacity:1;fill-rule:nonzero;stroke:none" d="M4699.5 5159.7h-575.6l155.35 340.14h219.48v22.52h-209.19l33.58 73.53h132.52v22.51H4333.4l33.58 73.53h131.75v22.51h-121.47l33.59 73.53h146.94v22.51h-136.66l33.58 73.53h44.02v22.51h-33.74l33.59 73.53h.15v.34l43.71 95.7h96.64v22.51h-86.36l33.58 73.53h115.64v22.51h-105.35l65.61 143.66h575.6l-109.47-239.7h-149.42v-22.51h139.13l-121.31-265.61h-156.98v-22.51h146.7L4909 5618.4h-171.4v-22.51h161.12l-33.58-73.53h-198.67v-22.52h188.38L4699.5 5159.7m-165.11 362.66v-22.52h104.69v22.52h-104.69m-48.26 96.04v-22.51h215.81v22.51h-215.81m180.34 96.04v-22.51h276.05v22.51h-276.05m-132.08 0v-22.51h104.69v22.51h-104.69m59.06 96.04v-22.51h215.81v22.51h-215.81m73.02 288.12v-22.51h276.05v22.51h-276.05m406.42 96.04v-22.51h72.84v22.51h-72.84m-335.29 0v-22.51h307.89v22.51H4737.6" transform="matrix(.13333 0 0 -.13333 0 1200)"/><path style="fill:#ececf1;fill-opacity:1;fill-rule:nonzero;stroke:none" d="M4737.6 6172.13h307.891v22.512H4737.6z" transform="matrix(.13333 0 0 -.13333 0 1200)"/><path style="fill:#98b5e3;fill-opacity:1;fill-rule:nonzero;stroke:none" d="M5072.89 6172.13h72.84v22.512h-72.84z" transform="matrix(.13333 0 0 -.13333 0 1200)"/><path style="fill:#f2585c;fill-opacity:1;fill-rule:nonzero;stroke:none" d="M4701.94 6172.13H4586.3l10.29 22.51h105.35v-22.51" transform="matrix(.13333 0 0 -.13333 0 1200)"/><path style="fill:#98b5e3;fill-opacity:1;fill-rule:nonzero;stroke:none" d="M4455.64 5595.89h-132.52l10.28 22.51h122.24v-22.51" transform="matrix(.13333 0 0 -.13333 0 1200)"/><path style="fill:#ececf1;fill-opacity:1;fill-rule:nonzero;stroke:none" d="M4898.72 5595.89H4737.6v22.51H4909l-10.28-22.51" transform="matrix(.13333 0 0 -.13333 0 1200)"/><path style="fill:#c3c1dd;fill-opacity:1;fill-rule:nonzero;stroke:none" d="M4486.13 5595.89h215.813v22.508H4486.13z" transform="matrix(.13333 0 0 -.13333 0 1200)"/><path style="fill:#98b5e3;fill-opacity:1;fill-rule:nonzero;stroke:none" d="M4986.45 5787.97h-146.7v22.51h156.98l-10.28-22.51" transform="matrix(.13333 0 0 -.13333 0 1200)"/><path style="fill:#ececf1;fill-opacity:1;fill-rule:nonzero;stroke:none" d="M4557.79 5787.97h-146.94l10.28 22.51h136.66v-22.51" transform="matrix(.13333 0 0 -.13333 0 1200)"/><path style="fill:#c3c1dd;fill-opacity:1;fill-rule:nonzero;stroke:none" d="M4593.45 5787.97h215.813v22.512H4593.45z" transform="matrix(.13333 0 0 -.13333 0 1200)"/><path style="fill:#98b5e3;fill-opacity:1;fill-rule:nonzero;stroke:none" d="M4639.08 6076.09h-96.64l10.28 22.51h86.36v-22.51" transform="matrix(.13333 0 0 -.13333 0 1200)"/><path style="fill:#ececf1;fill-opacity:1;fill-rule:nonzero;stroke:none" d="M5118.04 6076.09h-139.13v22.51h149.42l-10.29-22.51" transform="matrix(.13333 0 0 -.13333 0 1200)"/><path style="fill:#98b5e3;fill-opacity:1;fill-rule:nonzero;stroke:none" d="M4666.47 6076.09h276.051v22.512H4666.47zm-132.08-576.25h104.691v22.52H4534.39zm320.46 0h-188.38v22.52h198.67l-10.29-22.52m-356.12 0h-219.48l10.29 22.52h209.19v-22.52m35.66 192.09h104.691v22.512H4534.39zm132.08 0h276.051v22.512H4666.47zm-167.74 0h-131.75l10.28 22.51h121.47v-22.51m0 288.12h-.15l.15.34v-.34" transform="matrix(.13333 0 0 -.13333 0 1200)"/><path style="fill:#ececf1;fill-opacity:1;fill-rule:nonzero;stroke:none" d="M4498.73 5884.01h-44.02l10.28 22.51h33.74v-22.51" transform="matrix(.13333 0 0 -.13333 0 1200)"/><path style="fill:#dfdfdd;fill-opacity:1;fill-rule:nonzero;stroke:none" d="M6371.17 4566.7h-720.18c-29.09 0-52.88 23.8-52.88 52.88 0 29.09 23.79 52.88 52.88 52.88h720.18c29.08 0 52.88-23.79 52.88-52.88 0-29.08-23.8-52.88-52.88-52.88" transform="matrix(.13333 0 0 -.13333 0 1200)"/><path style="fill:#181d3d;fill-opacity:1;fill-rule:nonzero;stroke:none" d="M6112.36 4606.56h-102.85v30.85h102.85v-30.85m-133.71 0h-74.56v30.85h74.56v-30.85" transform="matrix(.13333 0 0 -.13333 0 1200)"/><path style="fill:#f0393f;fill-opacity:1;fill-rule:nonzero;stroke:none" d="M5357.75 4995.06v-430.85h-359.93v430.85c0 18.97 15.45 34.41 34.42 34.41h291.09c18.97 0 34.42-15.44 34.42-34.41" transform="matrix(.13333 0 0 -.13333 0 1200)"/><path style="fill:#eb3d3c;fill-opacity:1;fill-rule:nonzero;stroke:none" d="M5002.26 4637.94c-4.7 2.69-115.18 67.41-125.04 180.76-3.76 43.22 12.59 70 26.97 84.85 39.55 40.84 105.27 38.49 112.63 38.1l-2.87-52.59c-13.35.62-52.64-2.1-72.02-22.26-9.89-10.28-13.89-24.52-12.24-43.54 7.5-86.25 97.9-139.13 98.81-139.65l-26.24-45.67" transform="matrix(.13333 0 0 -.13333 0 1200)"/><path style="fill:#eb3d3c;fill-opacity:1;fill-rule:nonzero;stroke:none" d="M5189.55 4564.21h-191.73v430.85c0 18.97 15.45 34.41 34.42 34.41h11.59c.52-22.48 6.67-194.35 54.95-318.14 41.96-107.79 79.36-139.57 90.77-147.12" transform="matrix(.13333 0 0 -.13333 0 1200)"/><path style="fill:#c73341;fill-opacity:1;fill-rule:nonzero;stroke:none" d="M5189.55 4564.19h-191.73v.02h191.7c.01-.01.02-.01.03-.02" transform="matrix(.13333 0 0 -.13333 0 1200)"/><path style="fill:#b52933;fill-opacity:1;fill-rule:nonzero;stroke:none" d="M4952.79 4675.82c-32.55 30.58-70.09 79.05-75.59 142.95-.24 2.84-.4 5.6-.47 8.29.08-2.71.24-5.5.49-8.36 5.55-63.86 43.05-112.28 75.57-142.88m45.03 30.31c-27.26 23.34-63.5 63.87-68.13 117.13-.69 7.97-.39 15.09.92 21.44h.01c-1.29-6.33-1.58-13.43-.92-21.36 4.74-53.38 40.91-93.93 68.12-117.11v-.1" transform="matrix(.13333 0 0 -.13333 0 1200)"/><path style="fill:#c93445;fill-opacity:1;fill-rule:nonzero;stroke:none" d="M4930.62 4844.7h-.01c.67 3.28 1.62 6.35 2.83 9.22-1.21-2.88-2.15-5.95-2.82-9.22" transform="matrix(.13333 0 0 -.13333 0 1200)"/><path style="fill:#b52933;fill-opacity:1;fill-rule:nonzero;stroke:none" d="M4876.73 4827.12c0 .03 0 .07-.01.1.01-.04.01-.07.01-.1" transform="matrix(.13333 0 0 -.13333 0 1200)"/><path style="fill:#c93445;fill-opacity:1;fill-rule:nonzero;stroke:none" d="M4942.92 4867.8c14.14 13.81 37.81 19.06 54.9 20.7v-.03c-17.01-1.54-40.73-6.95-54.9-20.67m20.44 68.16c12.89 3.33 24.98 4.85 34.46 5.54v-.11c-9.47-.63-21.56-2.12-34.46-5.43" transform="matrix(.13333 0 0 -.13333 0 1200)"/><path style="fill:#d62a2b;fill-opacity:1;fill-rule:nonzero;stroke:none" d="M4997.82 4640.74c-8 4.98-25.63 16.85-45.03 35.08-32.52 30.6-70.02 79.02-75.57 142.88-.25 2.86-.41 5.65-.49 8.36v.06c0 .03 0 .06-.01.1-1.03 38.26 14.09 62.43 27.52 76.35 17.1 17.63 39.08 27.2 59.12 32.39 12.9 3.31 24.99 4.8 34.46 5.43v-52.89c-17.09-1.64-40.76-6.89-54.9-20.7-.32-.3-.62-.61-.93-.92a41.93 41.93 0 0 1-8.55-12.96 48.814 48.814 0 0 1-2.83-9.22c-1.31-6.35-1.61-13.47-.92-21.44 4.63-53.26 40.87-93.79 68.13-117.13v-65.39m191.7-76.53h-191.7v430.84c0 18.96 15.45 34.41 34.41 34.41h11.59c.53-22.48 6.67-194.36 54.95-318.14 41.94-107.73 79.31-139.54 90.75-147.11" transform="matrix(.13333 0 0 -.13333 0 1200)"/><path style="fill:#5e6eb7;fill-opacity:1;fill-rule:nonzero;stroke:none" d="m1191.3 4801.83-40.77 7.22 99.58 562.62 40.77-7.22-99.58-562.62" transform="matrix(.13333 0 0 -.13333 0 1200)"/><path style="fill:#5e6eb7;fill-opacity:1;fill-rule:nonzero;stroke:none" d="m1275.69 5207.36-63.19 11.18 29.94 169.2 63.19-11.19-29.94-169.19" transform="matrix(.13333 0 0 -.13333 0 1200)"/><path style="fill:#73335e;fill-opacity:1;fill-rule:nonzero;stroke:none" d="m1123.33 4730-41.25 3.46 47.74 569.36 24.97 36.42 16.29-39.88-47.75-569.36" transform="matrix(.13333 0 0 -.13333 0 1200)"/><path style="fill:#1e2b54;fill-opacity:1;fill-rule:nonzero;stroke:none" d="m1065.99 4700.91-40.64-7.92-109.182 560.83 14.09 41.85 26.551-33.93 109.181-560.83" transform="matrix(.13333 0 0 -.13333 0 1200)"/><path style="fill:#f3734d;fill-opacity:1;fill-rule:nonzero;stroke:none" d="M1157.36 4570.45H980.398l-58.015 468.46h292.997l-58.02-468.46" transform="matrix(.13333 0 0 -.13333 0 1200)"/><path style="fill:#fab549;fill-opacity:1;fill-rule:nonzero;stroke:none" d="M1224.08 4570.45h-176.96l-26.11 468.46h261.09l-58.02-468.46" transform="matrix(.13333 0 0 -.13333 0 1200)"/><path style="fill:#ef3140;fill-opacity:1;fill-rule:nonzero;stroke:none" d="M6686.93 3864.48v-257.81h900.33c55.89 0 103.64 35.7 121.49 85.56 4.79 13.5 7.48 28.12 7.48 43.4 0 35.48-14.4 67.72-37.71 91.14-23.43 23.32-55.67 37.71-91.26 37.71h-900.33" transform="matrix(.13333 0 0 -.13333 0 1200)"/><path style="fill:#d7272c;fill-opacity:1;fill-rule:nonzero;stroke:none" d="M7587.26 3606.67h-698.79v85.56h820.28c-17.85-49.86-65.6-85.56-121.49-85.56" transform="matrix(.13333 0 0 -.13333 0 1200)"/><path style="fill:#9e1f38;fill-opacity:1;fill-rule:nonzero;stroke:none" d="m6494.45 3864.53-.01-257.89h590.31c71.18 0 128.94 57.77 128.94 128.95 0 35.51-14.44 67.78-37.72 91.21-23.43 23.29-55.7 37.73-91.22 37.73h-590.3" transform="matrix(.13333 0 0 -.13333 0 1200)"/><path style="fill:#fff;fill-opacity:1;fill-rule:nonzero;stroke:none" d="m6494.45 3820.32-.01-165.34h555.54c45.68 0 82.66 36.99 82.66 82.67 0 22.84-9.28 43.47-24.17 58.5-15.03 14.89-35.66 24.17-58.49 24.17h-555.53" transform="matrix(.13333 0 0 -.13333 0 1200)"/><path style="fill:#f9a629;fill-opacity:1;fill-rule:nonzero;stroke:none" d="M6669.52 4376.98v-257.89l900.32.01c71.18 0 128.94 57.76 128.94 128.94 0 35.52-14.44 67.79-37.72 91.22-23.43 23.28-55.7 37.72-91.22 37.72h-900.32" transform="matrix(.13333 0 0 -.13333 0 1200)"/><path style="fill:#fad61a;fill-opacity:1;fill-rule:nonzero;stroke:none" d="M6873.59 4290.9v85.56h698.8c55.89 0 103.64-35.7 121.48-85.56h-820.28" transform="matrix(.13333 0 0 -.13333 0 1200)"/><path style="fill:#f26c45;fill-opacity:1;fill-rule:nonzero;stroke:none" d="M6494.45 4376.98v-257.89l590.3.01c71.18 0 128.94 57.76 128.94 128.94 0 35.52-14.44 67.79-37.72 91.22-23.43 23.28-55.7 37.72-91.22 37.72h-590.3" transform="matrix(.13333 0 0 -.13333 0 1200)"/><path style="fill:#fff;fill-opacity:1;fill-rule:nonzero;stroke:none" d="M6494.45 4332.77v-165.34l555.53.01c45.68 0 82.66 36.98 82.66 82.66 0 22.84-9.28 43.47-24.17 58.5-15.03 14.89-35.66 24.17-58.49 24.17h-555.53" transform="matrix(.13333 0 0 -.13333 0 1200)"/><path style="fill:#94d122;fill-opacity:1;fill-rule:nonzero;stroke:none" d="M6623.01 4117.61v-257.93h900.33c71.17 0 128.85 57.79 128.85 128.97 0 21.86-5.47 42.5-15.06 60.57-6.03 11.27-13.72 21.64-22.65 30.68-23.43 23.32-55.67 37.71-91.14 37.71h-900.33" transform="matrix(.13333 0 0 -.13333 0 1200)"/><path style="fill:#639f30;fill-opacity:1;fill-rule:nonzero;stroke:none" d="M6646.83 4117.61v-68.39h990.3c-6.03 11.27-13.72 21.64-22.65 30.68-23.43 23.32-55.67 37.71-91.14 37.71h-876.51m0-258.04v68.39h990.3c-6.03-11.27-13.72-21.64-22.65-30.68-23.43-23.32-55.67-37.71-91.14-37.71h-876.51" transform="matrix(.13333 0 0 -.13333 0 1200)"/><path style="fill:#448532;fill-opacity:1;fill-rule:nonzero;stroke:none" d="M6387.37 4117.6v-257.88h540.3c71.17 0 128.94 57.77 128.94 128.94 0 35.52-14.44 67.79-37.73 91.22-23.43 23.29-55.7 37.73-91.21 37.73l-540.3-.01" transform="matrix(.13333 0 0 -.13333 0 1200)"/><path style="fill:#fff;fill-opacity:1;fill-rule:nonzero;stroke:none" d="M6387.37 4073.39v-165.33h505.52c45.68 0 82.67 36.98 82.67 82.67 0 22.84-9.29 43.47-24.17 58.5-15.03 14.89-35.66 24.17-58.5 24.17l-505.52-.01" transform="matrix(.13333 0 0 -.13333 0 1200)"/><path style="fill:#181d3d;fill-opacity:1;fill-rule:nonzero;stroke:none" d="M6761.89 5631.69c-43.07 45.94-39.34 116.83 8.34 158.34l5.4 4.7c47.67 41.5 121.25 37.91 164.32-8.03v-.01c43.08-45.94 39.35-116.82-8.33-158.33l-5.4-4.7c-47.68-41.5-121.25-37.91-164.33 8.03" transform="matrix(.13333 0 0 -.13333 0 1200)"/><path style="fill:#df6b45;fill-opacity:1;fill-rule:nonzero;stroke:none" d="m6853.38 5408.74-113.31-98.64-321.74 343.13 113.31 98.64c78.51 68.34 191.12 77.42 278.52 29.99a237.413 237.413 0 0 0 60.41-46.55c44.38-47.34 64.69-107.56 61.66-166.72-3.2-59.15-29.72-117.09-78.85-159.85" transform="matrix(.13333 0 0 -.13333 0 1200)"/><path style="fill:#fbc02c;fill-opacity:1;fill-rule:nonzero;stroke:none" d="m6751.01 5517.92-113.31-98.64-219.37 233.95 113.31 98.64c78.51 68.34 191.12 77.42 278.52 29.99 15.01-33.1 21.55-68.76 19.69-104.09-3.18-59.15-29.71-117.09-78.84-159.85" transform="matrix(.13333 0 0 -.13333 0 1200)"/><path style="fill:#9f9aaf;fill-opacity:1;fill-rule:nonzero;stroke:none" d="M6745.94 5311.42c-34.18-30.52-135.2 20.47-225.62 114.1-90.43 93.64-136.14 194.32-101.9 224.93 26.96 24.2 95.78-2.64 168.17-61.23a658.637 658.637 0 0 0 57.36-52.82c22.05-22.86 41.48-46.12 57.69-68.7 50.35-69.89 70.13-133.16 44.3-156.28" transform="matrix(.13333 0 0 -.13333 0 1200)"/><path style="fill:#fff;fill-opacity:1;fill-rule:nonzero;stroke:none" d="M6701.64 5467.7c-26.19-28.84-70.72-37.07-106.81-17.43-41.22 22.44-55.81 72.99-32.47 112.79 6.22 10.61 14.55 19.48 24.23 26.16a658.637 658.637 0 0 0 57.36-52.82c22.05-22.86 41.48-46.12 57.69-68.7" transform="matrix(.13333 0 0 -.13333 0 1200)"/><path style="fill:none;stroke:#181d3d;stroke-width:45.94309998;stroke-linecap:butt;stroke-linejoin:miter;stroke-miterlimit:10;stroke-dasharray:none;stroke-opacity:1" d="m7334.14 4522.08 293.72 948.09-594.79 396.21-124.83-106.13" transform="matrix(.13333 0 0 -.13333 0 1200)"/><path style="fill:#181d3d;fill-opacity:1;fill-rule:nonzero;stroke:none" d="M7098.38 5860.74c0-38.91-32.74-70.46-73.13-70.46-40.39 0-73.13 31.55-73.13 70.46 0 38.92 32.74 70.47 73.13 70.47 40.39 0 73.13-31.55 73.13-70.47" transform="matrix(.13333 0 0 -.13333 0 1200)"/><path style="fill:#2f396e;fill-opacity:1;fill-rule:nonzero;stroke:none" d="M7061.82 5860.74c0-19.45-16.38-35.23-36.57-35.23-20.2 0-36.56 15.78-36.56 35.23 0 19.46 16.36 35.24 36.56 35.24 20.19 0 36.57-15.78 36.57-35.24m567.98-1486.9h-756.67c0 83.03 67.31 150.33 150.33 150.33h456.02c83.02 0 150.32-67.3 150.32-150.33" transform="matrix(.13333 0 0 -.13333 0 1200)"/><path style="fill:#181d3d;fill-opacity:1;fill-rule:nonzero;stroke:none" d="M7165.66 4520.41h-136.51v41.34h136.51v-41.34m558.73 940.09c0-54.48-45.84-98.65-102.39-98.65-56.54 0-102.38 44.17-102.38 98.65 0 54.49 45.84 98.65 102.38 98.65 56.55 0 102.39-44.16 102.39-98.65" transform="matrix(.13333 0 0 -.13333 0 1200)"/><path style="fill:#2f396e;fill-opacity:1;fill-rule:nonzero;stroke:none" d="M7673.19 5460.5c0-27.24-22.91-49.33-51.19-49.33-28.27 0-51.19 22.09-51.19 49.33s22.92 49.33 51.19 49.33c28.28 0 51.19-22.09 51.19-49.33" transform="matrix(.13333 0 0 -.13333 0 1200)"/><path style="fill:#487e2f;fill-opacity:1;fill-rule:nonzero;stroke:none" d="M8279.02 4317.88c-110.98-151.13-333.62-176.21-333.62-176.21s-42.7 219.94 68.27 371.06c110.98 151.13 333.62 176.22 333.62 176.22s42.71-219.95-68.27-371.07" transform="matrix(.13333 0 0 -.13333 0 1200)"/><path style="fill:#366631;fill-opacity:1;fill-rule:nonzero;stroke:none" d="M7813.01 4408.25c101.73-100.27 96.18-270.86 96.18-270.86s-170.5-8.03-272.23 92.23c-101.74 100.27-96.19 270.87-96.19 270.87s170.5 8.03 272.24-92.24" transform="matrix(.13333 0 0 -.13333 0 1200)"/><path style="fill:#5bb74e;fill-opacity:1;fill-rule:nonzero;stroke:none" d="M8065.15 4484.1c20.67-186.36-126.18-355.57-126.18-355.57s-180.35 132.92-201.02 319.28c-20.67 186.36 126.18 355.57 126.18 355.57s180.35-132.93 201.02-319.28" transform="matrix(.13333 0 0 -.13333 0 1200)"/><path style="fill:#5c2945;fill-opacity:1;fill-rule:nonzero;stroke:none" d="M8051.38 3613.65H7665.2l-126.62 563.45H8178l-126.62-563.45" transform="matrix(.13333 0 0 -.13333 0 1200)"/><path style="fill:#9d4333;fill-opacity:1;fill-rule:nonzero;stroke:none" d="M8197 3613.65h-386.19l-56.98 563.45h569.78L8197 3613.65" transform="matrix(.13333 0 0 -.13333 0 1200)"/></svg>